<svg width="16" height="16" viewBox="0 0 16 16" fill="none" xmlns="http://www.w3.org/2000/svg">
<g id="Calendar / Calendar_Days">
<path id="Vector" d="M3.39437 13.188L3.62136 12.7425L3.39437 13.188ZM2.81183 12.6054L2.36633 12.8324H2.36633L2.81183 12.6054ZM13.188 12.6054L12.7425 12.3784L13.188 12.6054ZM12.605 13.188L12.378 12.7425L12.605 13.188ZM12.605 2.81203L12.832 2.36653H12.832L12.605 2.81203ZM13.188 3.39473L12.7425 3.62173L13.188 3.39473ZM3.39437 2.81203L3.62136 3.25754L3.39437 2.81203ZM2.81183 3.39473L3.25733 3.62173L2.81183 3.39473ZM10.6665 10.6667V10.1667C10.3904 10.1667 10.1665 10.3906 10.1665 10.6667H10.6665ZM10.6678 10.6667L11.1677 10.6784C11.1708 10.5438 11.1196 10.4136 11.0255 10.3173C10.9314 10.221 10.8025 10.1667 10.6678 10.1667V10.6667ZM10.6678 10.668L10.6558 11.1679C10.7885 11.1711 10.9169 11.1214 11.0129 11.0299C11.1089 10.9383 11.1646 10.8123 11.1677 10.6797L10.6678 10.668ZM10.6665 10.668H10.1665C10.1665 10.9395 10.3831 11.1614 10.6545 11.1679L10.6665 10.668ZM7.99984 10.6667V10.1667C7.72369 10.1667 7.49984 10.3906 7.49984 10.6667H7.99984ZM8.00117 10.6667L8.50103 10.6784C8.50418 10.5438 8.45291 10.4136 8.35883 10.3173C8.26475 10.221 8.1358 10.1667 8.00117 10.1667V10.6667ZM8.00114 10.668L7.98918 11.1679C8.1218 11.1711 8.25024 11.1214 8.34624 11.0299C8.44223 10.9383 8.4979 10.8123 8.501 10.6797L8.00114 10.668ZM7.99984 10.668H7.49984C7.49984 10.9395 7.71647 11.1614 7.98788 11.1679L7.99984 10.668ZM5.33317 10.6667V10.1667C5.05703 10.1667 4.83317 10.3906 4.83317 10.6667H5.33317ZM5.3345 10.6667L5.83437 10.6784C5.83751 10.5438 5.78624 10.4136 5.69216 10.3173C5.59808 10.221 5.46914 10.1667 5.3345 10.1667V10.6667ZM5.33447 10.668L5.32251 11.1679C5.45513 11.1711 5.58358 11.1214 5.67957 11.0299C5.77556 10.9383 5.83124 10.8123 5.83434 10.6797L5.33447 10.668ZM5.33317 10.668H4.83317C4.83317 10.9395 5.04981 11.1614 5.32121 11.1679L5.33317 10.668ZM10.6678 8.00004H11.1678C11.1678 7.7239 10.9439 7.50004 10.6678 7.50004V8.00004ZM10.6678 8.00137L10.6558 8.50123C10.7905 8.50445 10.9207 8.45322 11.0171 8.35913C11.1135 8.26504 11.1678 8.13606 11.1678 8.00137H10.6678ZM10.6665 8.00134H10.1665C10.1665 8.27283 10.3831 8.49471 10.6545 8.5012L10.6665 8.00134ZM10.6665 8.00004V7.50004C10.3904 7.50004 10.1665 7.7239 10.1665 8.00004H10.6665ZM7.99984 8.00004V7.50004C7.72369 7.50004 7.49984 7.7239 7.49984 8.00004H7.99984ZM8.00117 8.00004L8.50103 8.01172C8.50418 7.87712 8.45291 7.74695 8.35883 7.65064C8.26475 7.55434 8.1358 7.50004 8.00117 7.50004V8.00004ZM8.00114 8.00137L7.98918 8.50123C8.1218 8.5044 8.25024 8.45475 8.34624 8.36319C8.44223 8.27163 8.4979 8.14567 8.501 8.01305L8.00114 8.00137ZM7.99984 8.00134H7.49984C7.49984 8.27283 7.71647 8.49471 7.98788 8.5012L7.99984 8.00134ZM5.33317 8.00004V7.50004C5.05703 7.50004 4.83317 7.7239 4.83317 8.00004H5.33317ZM5.3345 8.00004L5.83437 8.01172C5.83751 7.87712 5.78624 7.74695 5.69216 7.65064C5.59808 7.55434 5.46914 7.50004 5.3345 7.50004V8.00004ZM5.33447 8.00137L5.32251 8.50123C5.45513 8.5044 5.58358 8.45475 5.67957 8.36319C5.77556 8.27163 5.83124 8.14567 5.83434 8.01305L5.33447 8.00137ZM5.33317 8.00134H4.83317C4.83317 8.27283 5.04981 8.49471 5.32121 8.5012L5.33317 8.00134ZM2.6665 4.83337C2.39036 4.83337 2.1665 5.05723 2.1665 5.33337C2.1665 5.60952 2.39036 5.83337 2.6665 5.83337V4.83337ZM13.3332 5.83337C13.6093 5.83337 13.8332 5.60952 13.8332 5.33337C13.8332 5.05723 13.6093 4.83337 13.3332 4.83337V5.83337ZM11.1665 1.33337C11.1665 1.05723 10.9426 0.833374 10.6665 0.833374C10.3904 0.833374 10.1665 1.05723 10.1665 1.33337H11.1665ZM10.1665 2.66671C10.1665 2.94285 10.3904 3.16671 10.6665 3.16671C10.9426 3.16671 11.1665 2.94285 11.1665 2.66671H10.1665ZM5.83317 1.33337C5.83317 1.05723 5.60931 0.833374 5.33317 0.833374C5.05703 0.833374 4.83317 1.05723 4.83317 1.33337H5.83317ZM4.83317 2.66671C4.83317 2.94285 5.05703 3.16671 5.33317 3.16671C5.60931 3.16671 5.83317 2.94285 5.83317 2.66671H4.83317ZM4.79997 3.16671H11.2V2.16671H4.79997V3.16671ZM12.8332 4.80001V11.2H13.8332V4.80001H12.8332ZM11.2 12.8334H4.79997V13.8334H11.2V12.8334ZM3.1665 11.2V4.80001H2.1665V11.2H3.1665ZM4.79997 12.8334C4.41836 12.8334 4.16214 12.833 3.96481 12.8169C3.77329 12.8012 3.68172 12.7733 3.62136 12.7425L3.16737 13.6335C3.39224 13.7481 3.63009 13.7928 3.88338 13.8135C4.13087 13.8338 4.43484 13.8334 4.79997 13.8334V12.8334ZM2.1665 11.2C2.1665 11.5651 2.16612 11.8691 2.18633 12.1165C2.20702 12.3697 2.25176 12.6075 2.36633 12.8324L3.25733 12.3784C3.22657 12.318 3.19865 12.2265 3.18301 12.0351C3.16689 11.8378 3.1665 11.5816 3.1665 11.2H2.1665ZM3.62136 12.7425C3.46464 12.6627 3.33726 12.5353 3.25733 12.3784L2.36633 12.8324C2.54205 13.1773 2.82233 13.4577 3.16737 13.6335L3.62136 12.7425ZM12.8332 11.2C12.8332 11.5817 12.8328 11.8378 12.8167 12.0351C12.8011 12.2266 12.7732 12.3181 12.7425 12.3784L13.6335 12.8324C13.7481 12.6075 13.7928 12.3696 13.8134 12.1164C13.8336 11.869 13.8332 11.5651 13.8332 11.2H12.8332ZM11.2 13.8334C11.5651 13.8334 11.8689 13.8338 12.1163 13.8135C12.3695 13.7928 12.6072 13.7481 12.832 13.6335L12.378 12.7425C12.3176 12.7733 12.2261 12.8012 12.0348 12.8169C11.8377 12.833 11.5816 12.8334 11.2 12.8334V13.8334ZM12.7425 12.3784C12.6627 12.5349 12.5351 12.6625 12.378 12.7425L12.832 13.6335C13.1767 13.4579 13.4576 13.1776 13.6335 12.8324L12.7425 12.3784ZM11.2 3.16671C11.5816 3.16671 11.8377 3.1671 12.0348 3.18321C12.2262 3.19885 12.3176 3.22676 12.378 3.25754L12.832 2.36653C12.6072 2.25198 12.3695 2.20723 12.1163 2.18653C11.8689 2.16632 11.5651 2.16671 11.2 2.16671V3.16671ZM13.8332 4.80001C13.8332 4.43494 13.8336 4.13104 13.8134 3.88366C13.7928 3.63044 13.7481 3.39263 13.6335 3.16774L12.7425 3.62173C12.7732 3.68205 12.8011 3.77352 12.8167 3.96494C12.8328 4.16221 12.8332 4.41834 12.8332 4.80001H13.8332ZM12.378 3.25754C12.535 3.33753 12.6627 3.46513 12.7425 3.62173L13.6335 3.16774C13.4576 2.82257 13.1768 2.54219 12.832 2.36653L12.378 3.25754ZM4.79997 2.16671C4.43484 2.16671 4.13087 2.16632 3.88339 2.18653C3.63011 2.20722 3.39224 2.25195 3.16737 2.36653L3.62136 3.25754C3.68171 3.22679 3.77327 3.19886 3.9648 3.18321C4.16213 3.1671 4.41835 3.16671 4.79997 3.16671V2.16671ZM3.1665 4.80001C3.1665 4.41839 3.16689 4.16226 3.18301 3.96502C3.19865 3.77362 3.22657 3.68211 3.25733 3.62173L2.36633 3.16774C2.25177 3.39258 2.20702 3.63033 2.18633 3.88358C2.16611 4.13099 2.1665 4.43489 2.1665 4.80001H3.1665ZM3.16737 2.36653C2.82228 2.54236 2.54203 2.8229 2.36633 3.16774L3.25733 3.62173C3.33729 3.4648 3.46469 3.33736 3.62136 3.25754L3.16737 2.36653ZM10.6665 11.1667H10.6678V10.1667H10.6665V11.1667ZM10.168 10.655L10.1679 10.6564L11.1677 10.6797L11.1677 10.6784L10.168 10.655ZM10.6798 10.1682L10.6785 10.1682L10.6545 11.1679L10.6558 11.1679L10.6798 10.1682ZM11.1665 10.668V10.6667H10.1665V10.668H11.1665ZM7.99984 11.1667H8.00117V10.1667H7.99984V11.1667ZM7.50131 10.655L7.50128 10.6564L8.501 10.6797L8.50103 10.6784L7.50131 10.655ZM8.0131 10.1682L8.0118 10.1682L7.98788 11.1679L7.98918 11.1679L8.0131 10.1682ZM8.49984 10.668V10.6667H7.49984V10.668H8.49984ZM5.33317 11.1667H5.3345V10.1667H5.33317V11.1667ZM4.83464 10.655L4.83461 10.6564L5.83434 10.6797L5.83437 10.6784L4.83464 10.655ZM5.34643 10.1682L5.34513 10.1682L5.32121 11.1679L5.32251 11.1679L5.34643 10.1682ZM5.83317 10.668V10.6667H4.83317V10.668H5.83317ZM10.1678 8.00004V8.00137H11.1678V8.00004H10.1678ZM10.6798 7.50152L10.6785 7.50149L10.6545 8.5012L10.6558 8.50123L10.6798 7.50152ZM11.1665 8.00134V8.00004H10.1665V8.00134H11.1665ZM10.6665 8.50004H10.6678V7.50004H10.6665V8.50004ZM7.99984 8.50004H8.00117V7.50004H7.99984V8.50004ZM7.50131 7.98836L7.50128 7.98969L8.501 8.01305L8.50103 8.01172L7.50131 7.98836ZM8.0131 7.50152L8.0118 7.50149L7.98788 8.5012L7.98918 8.50123L8.0131 7.50152ZM8.49984 8.00134V8.00004H7.49984V8.00134H8.49984ZM5.33317 8.50004H5.3345V7.50004H5.33317V8.50004ZM4.83464 7.98836L4.83461 7.98969L5.83434 8.01305L5.83437 8.01172L4.83464 7.98836ZM5.34643 7.50152L5.34513 7.50149L5.32121 8.5012L5.32251 8.50123L5.34643 7.50152ZM5.83317 8.00134V8.00004H4.83317V8.00134H5.83317ZM2.6665 5.83337H13.3332V4.83337H2.6665V5.83337ZM10.1665 1.33337V2.66671H11.1665V1.33337H10.1665ZM4.83317 1.33337V2.66671H5.83317V1.33337H4.83317Z" fill="#0B0B0B"/>
</g>
</svg>
