<svg width="20" height="21" viewBox="0 0 20 21" fill="none" xmlns="http://www.w3.org/2000/svg">
<g id="Warning / Circle_Warning">
<path id="Vector" d="M10.0415 13.5459H10.3415C10.3415 13.3802 10.2072 13.2459 10.0415 13.2459V13.5459ZM10.0415 13.6292L10.0414 13.9292C10.121 13.9292 10.1973 13.8976 10.2536 13.8414C10.3099 13.7851 10.3415 13.7088 10.3415 13.6292H10.0415ZM9.9585 13.6292H9.6585C9.6585 13.7948 9.79276 13.9291 9.95842 13.9292L9.9585 13.6292ZM9.9585 13.5459V13.2459C9.79281 13.2459 9.6585 13.3802 9.6585 13.5459H9.9585ZM10.3 7.71252C10.3 7.54684 10.1657 7.41252 10 7.41252C9.83431 7.41252 9.7 7.54684 9.7 7.71252H10.3ZM9.7 11.0459C9.7 11.2115 9.83431 11.3459 10 11.3459C10.1657 11.3459 10.3 11.2115 10.3 11.0459H9.7ZM10 17.8709C6.02355 17.8709 2.8 14.6473 2.8 10.6709H2.2C2.2 14.9787 5.69218 18.4709 10 18.4709V17.8709ZM2.8 10.6709C2.8 6.69445 6.02355 3.4709 10 3.4709V2.8709C5.69218 2.8709 2.2 6.36308 2.2 10.6709H2.8ZM10 3.4709C13.9764 3.4709 17.2 6.69445 17.2 10.6709H17.8C17.8 6.36308 14.3078 2.8709 10 2.8709V3.4709ZM17.2 10.6709C17.2 14.6473 13.9764 17.8709 10 17.8709V18.4709C14.3078 18.4709 17.8 14.9787 17.8 10.6709H17.2ZM9.7415 13.5459V13.6292H10.3415V13.5459H9.7415ZM10.0416 13.3292L9.95857 13.3292L9.95842 13.9292L10.0414 13.9292L10.0416 13.3292ZM10.2585 13.6292V13.5459H9.6585V13.6292H10.2585ZM9.9585 13.8459H10.0415V13.2459H9.9585V13.8459ZM9.7 7.71252V11.0459H10.3V7.71252H9.7Z" fill="#9AA6AC"/>
</g>
</svg>
