<svg width="24" height="24" viewBox="0 0 24 24" fill="none" xmlns="http://www.w3.org/2000/svg">
<g id="Edit / Sort_Ascending">
<path id="Vector" d="M4 16.5C3.72386 16.5 3.5 16.7239 3.5 17C3.5 17.2761 3.72386 17.5 4 17.5V16.5ZM10 17.5C10.2761 17.5 10.5 17.2761 10.5 17C10.5 16.7239 10.2761 16.5 10 16.5V17.5ZM4 11.5C3.72386 11.5 3.5 11.7239 3.5 12C3.5 12.2761 3.72386 12.5 4 12.5V11.5ZM13 12.5C13.2761 12.5 13.5 12.2761 13.5 12C13.5 11.7239 13.2761 11.5 13 11.5V12.5ZM18.5 11C18.5 10.7239 18.2761 10.5 18 10.5C17.7239 10.5 17.5 10.7239 17.5 11H18.5ZM18 19L17.6464 19.3536C17.8417 19.5488 18.1583 19.5488 18.3536 19.3536L18 19ZM21.3536 16.3536C21.5488 16.1583 21.5488 15.8417 21.3536 15.6464C21.1583 15.4512 20.8417 15.4512 20.6464 15.6464L21.3536 16.3536ZM15.3536 15.6464C15.1583 15.4512 14.8417 15.4512 14.6464 15.6464C14.4512 15.8417 14.4512 16.1583 14.6464 16.3536L15.3536 15.6464ZM4 6.5C3.72386 6.5 3.5 6.72386 3.5 7C3.5 7.27614 3.72386 7.5 4 7.5V6.5ZM16 7.5C16.2761 7.5 16.5 7.27614 16.5 7C16.5 6.72386 16.2761 6.5 16 6.5V7.5ZM4 17.5H10V16.5H4V17.5ZM4 12.5H13V11.5H4V12.5ZM17.5 11V19H18.5V11H17.5ZM20.6464 15.6464L17.6464 18.6464L18.3536 19.3536L21.3536 16.3536L20.6464 15.6464ZM18.3536 18.6464L15.3536 15.6464L14.6464 16.3536L17.6464 19.3536L18.3536 18.6464ZM4 7.5H16V6.5H4V7.5Z" fill="#0B0B0B"/>
</g>
</svg>
