<svg width="24" height="24" viewBox="0 0 24 24" fill="none" xmlns="http://www.w3.org/2000/svg">
<g id="Navigation / House_01">
<path id="Vector" d="M20 17V11.4521V11.4513C20 10.9175 20 10.6505 19.9351 10.4019C19.8775 10.1816 19.7827 9.97263 19.6548 9.7842C19.5104 9.57158 19.3096 9.39569 18.9074 9.04383L14.1074 4.84383C13.3608 4.19054 12.9875 3.86394 12.5674 3.7397C12.1972 3.63022 11.8028 3.63022 11.4326 3.7397C11.0127 3.86387 10.6398 4.19019 9.894 4.84275L9.89278 4.84383L5.09277 9.04383L5.09182 9.04466C4.69032 9.39597 4.48944 9.57174 4.34521 9.7842C4.2173 9.97263 4.12255 10.1816 4.06497 10.4019C4 10.6506 4 10.9178 4 11.4521V17C4 17.9319 4 18.3978 4.15224 18.7653C4.35523 19.2554 4.74481 19.6447 5.23486 19.8477C5.60241 20 6.06835 20 7.00023 20C7.93211 20 8.39782 20 8.76537 19.8477C9.25542 19.6447 9.64467 19.2554 9.84766 18.7653C9.9999 18.3978 10 17.9318 10 17V16C10 14.8954 10.8954 14 12 14C13.1046 14 14 14.8954 14 16V17C14 17.9318 14 18.3978 14.1522 18.7653C14.3552 19.2554 14.7448 19.6447 15.2349 19.8477C15.6024 20 16.0683 20 17.0002 20C17.9321 20 18.3978 20 18.7654 19.8477C19.2554 19.6447 19.6447 19.2554 19.8477 18.7653C19.9999 18.3978 20 17.9319 20 17Z" stroke="#0B0B0B" stroke-linecap="round" stroke-linejoin="round"/>
</g>
</svg>
