<svg width="20" height="21" viewBox="0 0 20 21" fill="none" xmlns="http://www.w3.org/2000/svg">
<g id="Interface / Search_Magnifying_Glass">
<path id="Vector" d="M13.0303 12.6406C12.7374 12.3477 12.2626 12.3477 11.9697 12.6406C11.6768 12.9335 11.6768 13.4083 11.9697 13.7012L13.0303 12.6406ZM16.9697 18.7012C17.2626 18.9941 17.7374 18.9941 18.0303 18.7012C18.3232 18.4083 18.3232 17.9335 18.0303 17.6406L16.9697 18.7012ZM8.33333 14.0876C5.52589 14.0876 3.25 11.8117 3.25 9.00423H1.75C1.75 12.6401 4.69746 15.5876 8.33333 15.5876V14.0876ZM3.25 9.00423C3.25 6.19678 5.52589 3.9209 8.33333 3.9209V2.4209C4.69746 2.4209 1.75 5.36836 1.75 9.00423H3.25ZM8.33333 3.9209C11.1408 3.9209 13.4167 6.19678 13.4167 9.00423H14.9167C14.9167 5.36836 11.9692 2.4209 8.33333 2.4209V3.9209ZM13.4167 9.00423C13.4167 11.8117 11.1408 14.0876 8.33333 14.0876V15.5876C11.9692 15.5876 14.9167 12.6401 14.9167 9.00423H13.4167ZM11.9697 13.7012L16.9697 18.7012L18.0303 17.6406L13.0303 12.6406L11.9697 13.7012Z" fill="#B0BABF"/>
</g>
</svg>
