<?xml version="1.0" encoding="utf-8"?>
<svg width="24" height="24" viewBox="0 0 24 24" fill="none" xmlns="http://www.w3.org/2000/svg">
    <path
        d="M20.35 8.92312L19.9838 8.71939C19.9269 8.68776 19.8984 8.67188 19.871 8.65543C19.5979 8.49184 19.3679 8.26542 19.1999 7.99501C19.183 7.9678 19.1664 7.93968 19.1338 7.88329L19.1337 7.88307C19.1012 7.82675 19.0848 7.79843 19.0697 7.77017C18.919 7.48885 18.8379 7.1756 18.8331 6.8565C18.8326 6.82771 18.8331 6.79826 18.834 6.74541L18.8343 6.72636L18.8414 6.30936C18.8529 5.62333 18.8586 5.28036 18.7626 4.97281C18.6776 4.70073 18.5357 4.44989 18.3459 4.23721C18.1317 3.99723 17.8348 3.82613 17.2424 3.48473L17.2393 3.48296L16.7455 3.1984C16.1526 2.85677 15.8561 2.68602 15.5414 2.62088C15.2629 2.56325 14.9754 2.56556 14.698 2.62784C14.3851 2.69806 14.0926 2.87322 13.5086 3.22294L13.5041 3.22562L13.1503 3.43748C13.0943 3.47098 13.066 3.48769 13.038 3.50328C12.7597 3.658 12.4485 3.74409 12.1303 3.7543C12.0982 3.75533 12.0656 3.75533 12.0004 3.75533H11.9995C11.9347 3.75533 11.9025 3.75533 11.8705 3.7543C11.5516 3.74405 11.2394 3.65757 10.9607 3.50221C10.9336 3.48712 10.9067 3.47097 10.8546 3.4397L10.8486 3.43609L10.4925 3.22232L10.4899 3.22071C9.9023 2.86797 9.60823 2.69143 9.29382 2.62088C9.01525 2.55838 8.72629 2.55628 8.44683 2.61466C8.13092 2.68064 7.83353 2.85322 7.239 3.19827L6.75134 3.48131C6.1599 3.82457 5.8646 3.99613 5.65124 4.23628C5.46248 4.44874 5.32109 4.699 5.23664 4.97037C5.14119 5.2771 5.14657 5.61903 5.15807 6.30277L5.16522 6.72743C5.1663 6.79173 5.16702 6.82391 5.16655 6.85554C5.16182 7.17528 5.0804 7.48921 4.92929 7.77103C4.91434 7.7989 4.89824 7.82677 4.86608 7.88244C4.8339 7.93816 4.81783 7.96595 4.80114 7.99283C4.63242 8.26468 4.40094 8.49218 4.12613 8.65604C4.09895 8.67225 4.07104 8.68783 4.01476 8.71903L3.65319 8.91939L3.65307 8.91946C3.05158 9.25279 2.7509 9.41942 2.5321 9.65681C2.33853 9.86684 2.19195 10.1159 2.10269 10.3872C2.00192 10.6935 2.0027 11.037 2.00426 11.7229L2.00427 11.7256L2.00554 12.2877L2.00556 12.2938C2.0071 12.9729 2.00787 13.3134 2.1087 13.6171C2.19816 13.8866 2.344 14.1339 2.53649 14.3427C2.75383 14.5784 3.05212 14.7443 3.64782 15.0757L3.64977 15.0768L4.00811 15.2762L4.01309 15.2789C4.07079 15.311 4.10054 15.3276 4.12914 15.3448C4.40145 15.5088 4.63043 15.7354 4.79772 16.0056C4.81579 16.0348 4.83314 16.0651 4.86781 16.1257L4.86784 16.1258C4.9021 16.1856 4.91943 16.2156 4.93528 16.2456C5.08195 16.5232 5.16121 16.8315 5.16657 17.1455C5.16715 17.1795 5.16661 17.214 5.16544 17.283L5.15856 17.6905L5.15854 17.692C5.14697 18.3771 5.14119 18.7198 5.23713 19.0272C5.32208 19.2993 5.46438 19.55 5.65417 19.7627C5.86869 20.0031 6.1656 20.1745 6.76013 20.5171L7.25383 20.8016C7.84668 21.1433 8.14354 21.314 8.45828 21.3791C8.73673 21.4368 9.02419 21.4344 9.30163 21.3721C9.61457 21.3019 9.90718 21.1266 10.4917 20.7766L10.4955 20.7744L10.8493 20.5625C10.9053 20.529 10.9334 20.5123 10.9615 20.4967C11.2398 20.342 11.5508 20.2559 11.869 20.2457C11.9011 20.2447 11.9337 20.2447 11.9989 20.2447C12.0643 20.2447 12.0975 20.2447 12.1296 20.2457C12.4485 20.256 12.7602 20.3424 13.0389 20.4977C13.067 20.5134 13.0952 20.5302 13.1512 20.5639L13.5073 20.7776L13.508 20.778C14.0969 21.1316 14.3913 21.3084 14.7061 21.379C14.9847 21.4415 15.2731 21.4437 15.5526 21.3854C15.8685 21.3194 16.1661 21.1468 16.7606 20.8017L17.2483 20.5187C17.8397 20.1754 18.1351 20.0039 18.3484 19.7637C18.5372 19.5512 18.6786 19.301 18.7631 19.0296C18.8585 18.7229 18.853 18.381 18.8415 17.6973L18.8343 17.2726L18.834 17.2511C18.8331 17.2007 18.8326 17.1724 18.833 17.1446C18.8378 16.8248 18.9191 16.5108 19.0702 16.229C19.0851 16.2012 19.1012 16.1733 19.1333 16.1178L19.1334 16.1176C19.1656 16.0619 19.1819 16.034 19.1986 16.0071C19.3674 15.7353 19.5986 15.5079 19.8734 15.344C19.8997 15.3284 19.9271 15.3132 19.9797 15.284L19.9852 15.281L20.3468 15.0806C20.9484 14.7472 21.2489 14.5806 21.4677 14.3432C21.6613 14.1331 21.8076 13.8841 21.8968 13.6128C21.9977 13.3061 21.9973 12.9622 21.9958 12.2744L21.9945 11.7123C21.993 11.0291 21.9921 10.6875 21.891 10.3828C21.8015 10.1133 21.6556 9.86604 21.4631 9.65728C21.2455 9.42131 20.947 9.25524 20.35 8.92312Z"
        stroke="#0B0B0B" stroke-width="1.2" stroke-linecap="round" stroke-linejoin="round" />
    <ellipse
        style="stroke: rgb(0, 0, 0); fill: rgb(255, 255, 255); paint-order: fill; transform-box: fill-box; transform-origin: 50% 50%;"
        cx="12" cy="12" rx="4" ry="4" />
</svg>